<svg width="602" height="648" viewBox="0 0 602 648" fill="none" xmlns="http://www.w3.org/2000/svg">
<path d="M283.355 647.282C274.095 645.282 261.005 638.342 207.855 607.232C201.525 603.532 190.505 597.132 183.355 593.012C150.065 573.842 56.3752 520.022 36.4952 508.662C19.9952 499.222 12.6352 492.592 7.8252 482.822C5.8652 478.842 4.9052 475.782 5.4452 475.252C5.9452 474.752 15.0052 469.392 25.5852 463.322C36.1652 457.262 45.8952 451.602 47.2052 450.742C49.5652 449.192 49.5852 449.222 50.1352 453.302C50.8252 458.402 53.5252 461.372 61.3252 465.602C64.6452 467.402 74.5552 473.072 83.3552 478.212C92.1552 483.352 110.155 493.712 123.355 501.232C148.835 515.762 174.545 530.552 189.355 539.202C222.425 558.512 274.235 587.972 278.845 590.092C283.315 592.142 285.905 592.622 292.605 592.622C302.575 592.632 301.445 593.172 348.855 565.732C366.735 555.392 385.635 544.462 390.855 541.442C396.075 538.422 406.205 532.572 413.355 528.442C420.505 524.312 434.905 515.972 445.355 509.912C455.805 503.852 469.975 495.652 476.855 491.692C511.835 471.552 525.515 463.212 527.125 461.072C528.785 458.852 528.885 451.892 528.865 339.192L528.835 219.682L534.095 214.632C536.985 211.862 542.775 206.592 546.955 202.922L554.565 196.252L566.705 195.942L578.855 195.622V331.382C578.855 427.452 578.525 468.682 577.735 472.432C576.055 480.452 571.975 488.002 565.715 494.702C560.065 500.752 557.535 502.432 529.855 518.462C516.015 526.482 507.855 531.222 486.095 543.882C480.745 547.002 464.885 556.152 450.855 564.222C420.105 581.902 352.275 621.082 330.895 633.502C322.395 638.432 312.555 643.562 309.015 644.892C301.905 647.572 289.885 648.692 283.355 647.282ZM246.105 539.452L213.855 520.772V468.592V416.422L221.745 416.962C226.085 417.262 230.755 417.222 232.115 416.882C233.475 416.542 244.385 407.702 256.365 397.242C268.345 386.792 278.475 378.232 278.885 378.232C279.295 378.232 279.655 418.732 279.685 468.232C279.715 517.732 279.435 558.212 279.045 558.192C278.665 558.162 263.845 549.732 246.105 539.452ZM315.855 449.772V347.312L334.585 331.272C353.115 315.412 353.375 315.232 358.095 315.232C361.755 315.232 365.065 316.322 372.365 319.912L381.855 324.602V419.322V514.042L370.105 521.012C363.645 524.852 351.155 532.162 342.355 537.252C333.555 542.342 324.215 547.802 321.585 549.372C318.965 550.942 316.605 552.232 316.335 552.232C316.075 552.232 315.855 506.122 315.855 449.772ZM144.355 481.212L113.355 463.322L113.085 437.992L112.825 412.672L124.085 406.272C130.285 402.752 139.925 397.232 145.505 394.012L155.655 388.162L160.505 390.062C163.175 391.102 168.045 393.492 171.335 395.372L177.315 398.792L177.335 449.012C177.345 481.872 177.005 499.212 176.355 499.172C175.805 499.142 161.405 491.062 144.355 481.212ZM418.855 405.092V317.042L424.075 312.382C432.795 304.622 453.275 286.032 472.455 268.472C478.015 263.392 482.845 259.232 483.205 259.232C483.565 259.232 483.855 303.472 483.855 357.552V455.862L474.105 461.382C468.745 464.422 454.115 472.812 441.605 480.022L418.855 493.142V405.092ZM0.0752019 432.622L0.355201 417.012L27.3552 401.122C42.2052 392.382 60.6552 381.552 68.3552 377.062C76.0552 372.582 88.6552 365.212 96.3552 360.692C104.055 356.172 114.565 350.052 119.715 347.102L129.075 341.732L129.295 333.732C129.575 323.452 132.315 316.952 138.985 310.712C155.305 295.442 181.255 300.082 190.955 319.992C192.755 323.692 193.315 326.702 193.495 333.732L193.725 342.732L201.545 347.532C209.045 352.152 220.275 358.232 221.285 358.232C221.545 358.232 226.625 354.072 232.565 348.972C238.495 343.882 250.335 333.882 258.855 326.742C267.375 319.602 283.875 305.602 295.515 295.622C307.145 285.642 318.525 275.982 320.795 274.162C323.565 271.932 324.715 270.332 324.305 269.292C323.965 268.432 323.275 265.202 322.775 262.122C321.045 251.532 324.815 240.292 332.465 233.232C339.325 226.912 344.165 224.932 353.995 224.432C364.765 223.892 370.855 225.712 377.365 231.452C385.785 238.862 389.135 246.252 389.035 257.172C388.975 263.502 389.125 263.962 391.815 265.552C393.385 266.472 395.135 267.232 395.705 267.232C396.285 267.232 402.985 261.492 410.615 254.482C433.325 233.582 454.615 214.212 486.355 185.572C532.925 143.542 529.245 147.262 527.795 143.732C527.115 142.082 526.515 136.672 526.455 131.712C526.365 123.432 526.625 122.142 529.645 116.012C533.465 108.242 539.745 102.172 547.855 98.4017C552.565 96.2117 554.795 95.8317 563.355 95.7817C572.655 95.7317 573.815 95.9617 579.975 98.9717C600.965 109.242 608.055 134.022 595.615 153.572C587.335 166.582 568.525 173.342 553.345 168.782L548.515 167.322L540.455 174.532C532.925 181.262 519.025 193.712 473.815 234.232C463.685 243.312 447.055 258.382 436.845 267.732C426.645 277.082 413.955 288.692 408.645 293.532L399.005 302.342L393.185 299.362C389.975 297.732 383.805 294.352 379.465 291.862C371.585 287.332 371.565 287.332 368.465 289.032C366.095 290.332 362.695 290.752 354.185 290.812L343.025 290.902L335.685 297.402C331.655 300.972 311.705 318.022 291.355 335.272C271.005 352.532 247.835 372.182 239.865 378.942C231.895 385.702 224.545 391.232 223.515 391.232C222.495 391.232 215.065 387.342 207.005 382.572C198.945 377.812 188.575 371.722 183.945 369.032L175.535 364.142L171.675 365.682C166.605 367.722 156.525 367.662 150.695 365.572L146.035 363.902L136.695 369.192C121.605 377.742 45.3452 422.012 14.5352 440.112C6.93519 444.582 0.515204 448.232 0.265204 448.232C0.00520435 448.232 -0.0747981 441.212 0.0752019 432.622ZM1.0752 281.982L1.3552 178.732L3.64519 172.402C9.03519 157.472 14.6052 152.302 43.0552 135.782C55.3152 128.662 85.1552 111.412 109.355 97.4517C133.555 83.4917 156.275 70.3617 159.855 68.2717C166.435 64.4217 184.725 53.8817 228.355 28.7717C241.555 21.1717 256.525 12.4917 261.635 9.48173C274.145 2.09173 280.945 0.0317326 292.855 0.00173263C308.075 -0.0382674 308.895 0.33173 365.855 33.0317C386.055 44.6217 392.645 48.4217 404.855 55.5217C427.385 68.6117 478.755 97.8317 491.855 105.012C495.435 106.972 498.465 108.642 498.585 108.722C498.715 108.802 498.115 112.212 497.255 116.302C496.195 121.372 495.895 125.952 496.335 130.742L496.985 137.742L488.365 145.242C479.425 153.012 477.575 154.052 475.555 152.432C474.155 151.312 469.155 148.432 409.355 114.232C294.565 48.5917 304.225 53.8617 296.425 52.6917C286.835 51.2517 289.135 50.1117 211.355 94.9117C197.055 103.152 176.125 115.202 164.855 121.702C153.585 128.192 132.205 140.502 117.355 149.062C102.505 157.612 82.2552 169.262 72.3552 174.952C57.1252 183.692 54.0552 185.852 52.3752 189.012C50.4552 192.622 50.4052 194.612 50.6452 255.732C50.7852 290.382 50.6152 327.562 50.2652 338.362L49.6352 357.982L43.4952 361.422C40.1152 363.312 29.4252 369.442 19.7352 375.042C10.0452 380.652 1.82521 385.232 1.45521 385.232C1.09521 385.232 0.925202 338.772 1.0752 281.982Z" fill="url(#paint0_linear_1_4)"/>
<defs>
<linearGradient id="paint0_linear_1_4" x1="-0.144811" y1="414.732" x2="601.855" y2="247.232" gradientUnits="userSpaceOnUse">
<stop stop-color="#3B82F6"/>
<stop offset="1" stop-color="#10B981"/>
</linearGradient>
</defs>
</svg>
