<svg width="777" height="177" viewBox="0 0 777 177" fill="none" xmlns="http://www.w3.org/2000/svg">
<path d="M77.3642 176.727C74.836 176.181 71.262 174.286 56.7505 165.792C55.0223 164.782 52.0135 163.034 50.0613 161.91C40.9722 156.676 15.3921 141.981 9.96425 138.879C5.45927 136.302 3.44978 134.492 2.13651 131.824C1.60137 130.738 1.33926 129.902 1.4867 129.758C1.62321 129.621 4.09686 128.158 6.9855 126.5C9.87415 124.846 12.5307 123.3 12.8884 123.066C13.5327 122.642 13.5382 122.651 13.6884 123.765C13.8768 125.157 14.6139 125.968 16.7436 127.123C17.65 127.614 20.3557 129.162 22.7584 130.566C25.1611 131.969 30.0756 134.798 33.6796 136.851C40.6363 140.818 47.6559 144.856 51.6995 147.218C60.7286 152.49 74.8742 160.533 76.1329 161.112C77.3533 161.672 78.0605 161.803 79.8897 161.803C82.6118 161.806 82.3033 161.953 95.2476 154.461C100.129 151.638 105.29 148.654 106.715 147.829C108.14 147.005 110.906 145.408 112.858 144.28C114.81 143.152 118.742 140.875 121.595 139.221C124.448 137.566 128.317 135.327 130.195 134.246C139.746 128.747 143.481 126.47 143.921 125.886C144.374 125.28 144.401 123.38 144.396 92.6092L144.387 59.9795L145.824 58.6007C146.613 57.8444 148.193 56.4056 149.335 55.4035L151.412 53.5824L154.727 53.4978L158.044 53.4104V90.4769C158.044 116.707 157.954 127.964 157.739 128.988C157.28 131.177 156.166 133.239 154.457 135.068C152.914 136.72 152.223 137.179 144.666 141.555C140.887 143.745 138.659 145.039 132.718 148.496C131.257 149.347 126.927 151.846 123.097 154.049C114.701 158.876 96.1814 169.573 90.344 172.964C88.0233 174.31 85.3367 175.711 84.3701 176.074C82.4289 176.806 79.1471 177.112 77.3642 176.727ZM67.1939 147.286L58.3887 142.186V127.939V113.695L60.5429 113.843C61.7279 113.925 63.0029 113.914 63.3742 113.821C63.7455 113.728 66.7243 111.314 69.9952 108.459C73.2661 105.605 76.0318 103.268 76.1438 103.268C76.2557 103.268 76.354 114.326 76.3622 127.841C76.3704 141.356 76.294 152.408 76.1875 152.403C76.0837 152.394 72.0374 150.093 67.1939 147.286ZM86.2377 122.801V94.8262L91.3515 90.4468C96.4107 86.1166 96.4817 86.0674 97.7704 86.0674C98.7697 86.0674 99.6734 86.365 101.667 87.3452L104.258 88.6257V114.487V140.348L101.05 142.251C99.2857 143.3 95.8756 145.296 93.4729 146.685C91.0703 148.075 88.5202 149.566 87.8021 149.995C87.0868 150.423 86.4424 150.775 86.3687 150.775C86.2977 150.775 86.2377 138.186 86.2377 122.801ZM39.4132 131.385L30.9493 126.5L30.8756 119.585L30.8046 112.671L33.8789 110.924C35.5717 109.963 38.2037 108.456 39.7272 107.577L42.4984 105.979L43.8226 106.498C44.5516 106.782 45.8812 107.435 46.7795 107.948L48.4122 108.882L48.4177 122.593C48.4204 131.565 48.3276 136.299 48.1501 136.288C47.9999 136.28 44.0683 134.074 39.4132 131.385ZM114.36 110.602V86.5616L115.785 85.2893C118.166 83.1706 123.757 78.095 128.994 73.3006C130.512 71.9136 131.831 70.7778 131.929 70.7778C132.027 70.7778 132.107 82.8566 132.107 97.622V124.464L129.445 125.971C127.981 126.801 123.987 129.091 120.571 131.06L114.36 134.642V110.602ZM0.0205323 118.118L0.0969801 113.856L7.46877 109.518C11.5232 107.132 16.5606 104.175 18.663 102.949C20.7653 101.726 24.2055 99.7135 26.3078 98.4794C28.4101 97.2453 31.2796 95.5743 32.6857 94.7689L35.2413 93.3027L35.3014 91.1185C35.3778 88.3117 36.1259 86.5371 37.947 84.8334C42.4028 80.6642 49.488 81.9311 52.1363 87.3671C52.6278 88.3773 52.7807 89.1991 52.8298 91.1185L52.8926 93.5757L55.0277 94.8863C57.0754 96.1477 60.1415 97.8077 60.4173 97.8077C60.4883 97.8077 61.8753 96.6719 63.4971 95.2794C65.1161 93.8897 68.3488 91.1594 70.675 89.21C73.0012 87.2606 77.5062 83.4382 80.6843 80.7134C83.8596 77.9885 86.9667 75.3511 87.5864 74.8541C88.3427 74.2453 88.6567 73.8084 88.5448 73.5245C88.4519 73.2897 88.2635 72.4078 88.127 71.5669C87.6547 68.6755 88.684 65.6066 90.7727 63.6791C92.6457 61.9535 93.9671 61.4129 96.651 61.2764C99.5915 61.129 101.254 61.6259 103.032 63.1931C105.331 65.2162 106.245 67.2339 106.218 70.2154C106.202 71.9437 106.243 72.0692 106.977 72.5034C107.406 72.7545 107.883 72.962 108.039 72.962C108.197 72.962 110.027 71.3949 112.11 69.4809C118.31 63.7746 124.123 58.486 132.789 50.6665C145.504 39.1911 144.499 40.2067 144.103 39.243C143.918 38.7925 143.754 37.3154 143.738 35.9611C143.713 33.7005 143.784 33.3483 144.609 31.6746C145.652 29.5531 147.366 27.8959 149.58 26.8665C150.866 26.2686 151.475 26.1649 153.812 26.1512C156.352 26.1375 156.668 26.2003 158.35 27.0222C164.081 29.8262 166.017 36.5918 162.62 41.9296C160.36 45.4817 155.224 47.3273 151.079 46.0823L149.761 45.6837L147.56 47.6522C145.504 49.4897 141.709 52.889 129.365 63.9521C126.6 66.4312 122.059 70.5457 119.271 73.0986C116.487 75.6514 113.022 78.8213 111.572 80.1427L108.94 82.5481L107.351 81.7345C106.475 81.2894 104.79 80.3666 103.605 79.6868C101.454 78.4499 101.448 78.4499 100.602 78.9141C99.9547 79.269 99.0264 79.3837 96.7029 79.4001L93.6559 79.4247L91.6518 81.1993C90.5515 82.1741 85.1046 86.8292 79.5485 91.539C73.9923 96.2514 67.6662 101.616 65.4902 103.462C63.3142 105.308 61.3074 106.818 61.0262 106.818C60.7477 106.818 58.7191 105.756 56.5185 104.453C54.3178 103.154 51.4865 101.491 50.2224 100.756L47.9262 99.4213L46.8723 99.8418C45.4881 100.399 42.7359 100.382 41.1442 99.8117L39.8719 99.3558L37.3218 100.8C33.2018 103.135 12.3806 115.222 3.96853 120.163C1.89351 121.384 0.140666 122.38 0.0724085 122.38C0.00142094 122.38 -0.0204221 120.464 0.0205323 118.118ZM0.293561 76.9892L0.370009 48.799L0.995244 47.0707C2.46687 42.9944 3.98765 41.5828 11.7553 37.0724C15.1027 35.1284 23.2499 30.4186 29.8572 26.6072C36.4645 22.7957 42.6677 19.2108 43.6451 18.6402C45.4417 17.589 50.4354 14.7113 62.3476 7.85552C65.9516 5.7805 70.0389 3.41061 71.434 2.58879C74.8496 0.571103 76.7062 0.00866393 79.958 0.000473058C84.1135 -0.0104481 84.3374 0.0905719 99.8891 9.01863C105.404 12.183 107.204 13.2205 110.537 15.159C116.689 18.733 130.714 26.7109 134.291 28.6713C135.268 29.2064 136.096 29.6624 136.128 29.6842C136.164 29.706 136 30.6371 135.765 31.7538C135.476 33.138 135.394 34.3885 135.514 35.6963L135.691 37.6075L133.338 39.6552C130.897 41.7767 130.392 42.0606 129.84 41.6183C129.458 41.3125 128.093 40.5262 111.766 31.1886C80.4249 13.267 83.0623 14.7058 80.9327 14.3864C78.3144 13.9932 78.9423 13.682 57.7061 25.9137C53.8018 28.1634 48.0873 31.4534 45.0103 33.2281C41.9332 35.0001 36.0959 38.3611 32.0414 40.6982C27.9869 43.0326 22.4581 46.2134 19.7551 47.7669C15.5968 50.1532 14.7586 50.7429 14.3 51.6057C13.7757 52.5913 13.7621 53.1347 13.8276 69.8222C13.8658 79.2827 13.8194 89.4339 13.7239 92.3826L13.5519 97.7394L11.8755 98.6787C10.9526 99.1947 8.03394 100.868 5.38829 102.397C2.74263 103.929 0.498335 105.179 0.397314 105.179C0.299023 105.179 0.252607 92.4946 0.293561 76.9892Z" fill="url(#paint0_linear_1_11)"/>
<path d="M215.674 131V69.096C215.674 65.916 216.381 63.0893 217.794 60.616C219.207 58.1427 221.151 56.1993 223.624 54.786C226.097 53.3727 228.959 52.666 232.21 52.666C234.471 52.666 236.591 53.09 238.57 53.938C240.549 54.786 242.139 55.9167 243.34 57.33L239.63 65.704C238.711 64.856 237.687 64.1847 236.556 63.69C235.496 63.1247 234.471 62.842 233.482 62.842C231.998 62.842 230.726 63.0893 229.666 63.584C228.677 64.008 227.935 64.7147 227.44 65.704C226.945 66.6227 226.698 67.7533 226.698 69.096V131H221.186C220.267 131 219.349 131 218.43 131C217.511 131 216.593 131 215.674 131ZM206.77 86.374V76.304H239.842V86.374H206.77ZM274.191 132.06C268.75 132.06 263.874 130.823 259.563 128.35C255.323 125.806 251.966 122.379 249.493 118.068C247.02 113.687 245.783 108.705 245.783 103.122C245.783 97.5393 247.02 92.5927 249.493 88.282C251.966 83.9007 255.323 80.4733 259.563 78C263.874 75.456 268.75 74.184 274.191 74.184C279.562 74.184 284.367 75.456 288.607 78C292.918 80.4733 296.31 83.9007 298.783 88.282C301.256 92.5927 302.493 97.5393 302.493 103.122C302.493 108.705 301.256 113.687 298.783 118.068C296.31 122.379 292.918 125.806 288.607 128.35C284.367 130.823 279.562 132.06 274.191 132.06ZM274.191 122.096C277.512 122.096 280.48 121.283 283.095 119.658C285.71 117.962 287.759 115.701 289.243 112.874C290.727 109.977 291.434 106.726 291.363 103.122C291.434 99.4473 290.727 96.1967 289.243 93.37C287.759 90.4727 285.71 88.2113 283.095 86.586C280.48 84.9607 277.512 84.148 274.191 84.148C270.87 84.148 267.866 84.996 265.181 86.692C262.566 88.3173 260.517 90.5787 259.033 93.476C257.549 96.3027 256.842 99.518 256.913 103.122C256.842 106.726 257.549 109.977 259.033 112.874C260.517 115.701 262.566 117.962 265.181 119.658C267.866 121.283 270.87 122.096 274.191 122.096ZM314.39 131V75.35H325.414V92.84L324.354 88.6C325.131 85.9147 326.438 83.4767 328.276 81.286C330.184 79.0953 332.339 77.364 334.742 76.092C337.215 74.82 339.759 74.184 342.374 74.184C343.575 74.184 344.706 74.29 345.766 74.502C346.896 74.714 347.78 74.9613 348.416 75.244L345.554 87.116C344.706 86.7627 343.752 86.48 342.692 86.268C341.702 85.9853 340.713 85.844 339.724 85.844C337.816 85.844 335.978 86.2327 334.212 87.01C332.516 87.7167 330.996 88.7413 329.654 90.084C328.382 91.356 327.357 92.8753 326.58 94.642C325.802 96.338 325.414 98.2107 325.414 100.26V131H314.39ZM356.93 131V75.35H367.954V87.222L365.94 88.494C366.505 86.6567 367.388 84.89 368.59 83.194C369.862 81.498 371.381 80.014 373.148 78.742C374.985 77.3993 376.928 76.3393 378.978 75.562C381.098 74.7847 383.253 74.396 385.444 74.396C388.624 74.396 391.415 74.926 393.818 75.986C396.22 77.046 398.199 78.636 399.754 80.756C401.308 82.876 402.439 85.526 403.146 88.706L401.45 88.282L402.192 86.48C402.969 84.8547 404.029 83.3353 405.372 81.922C406.785 80.438 408.375 79.1307 410.142 78C411.908 76.8693 413.781 75.986 415.76 75.35C417.738 74.714 419.682 74.396 421.59 74.396C425.759 74.396 429.186 75.244 431.872 76.94C434.628 78.636 436.677 81.2153 438.02 84.678C439.433 88.1407 440.14 92.4513 440.14 97.61V131H429.116V98.246C429.116 95.066 428.692 92.4867 427.844 90.508C427.066 88.4587 425.865 86.9393 424.24 85.95C422.614 84.9607 420.53 84.466 417.986 84.466C416.007 84.466 414.134 84.8193 412.368 85.526C410.672 86.162 409.188 87.0807 407.916 88.282C406.644 89.4833 405.654 90.8967 404.948 92.522C404.241 94.0767 403.888 95.808 403.888 97.716V131H392.864V98.034C392.864 95.1367 392.44 92.6987 391.592 90.72C390.744 88.6707 389.507 87.116 387.882 86.056C386.256 84.996 384.278 84.466 381.946 84.466C379.967 84.466 378.13 84.8193 376.434 85.526C374.738 86.162 373.254 87.0807 371.982 88.282C370.71 89.4127 369.72 90.7907 369.014 92.416C368.307 93.9707 367.954 95.6667 367.954 97.504V131H356.93ZM474.261 132.06C470.304 132.06 466.841 131.141 463.873 129.304C460.976 127.467 458.714 124.887 457.089 121.566C455.534 118.245 454.757 114.287 454.757 109.694V75.35H465.675V106.726C465.675 109.977 466.17 112.803 467.159 115.206C468.219 117.538 469.703 119.34 471.611 120.612C473.59 121.884 475.957 122.52 478.713 122.52C480.762 122.52 482.635 122.202 484.331 121.566C486.027 120.859 487.476 119.905 488.677 118.704C489.949 117.503 490.938 116.054 491.645 114.358C492.352 112.662 492.705 110.825 492.705 108.846V75.35H503.623V131H492.705V119.34L494.613 118.068C493.765 120.683 492.316 123.05 490.267 125.17C488.288 127.29 485.921 128.986 483.165 130.258C480.409 131.459 477.441 132.06 474.261 132.06ZM519.149 131V52.56H530.067V131H519.149ZM564.527 132.06C560.569 132.06 557.107 131.141 554.139 129.304C551.241 127.467 548.98 124.887 547.355 121.566C545.8 118.245 545.023 114.287 545.023 109.694V75.35H555.941V106.726C555.941 109.977 556.435 112.803 557.425 115.206C558.485 117.538 559.969 119.34 561.877 120.612C563.855 121.884 566.223 122.52 568.979 122.52C571.028 122.52 572.901 122.202 574.597 121.566C576.293 120.859 577.741 119.905 578.943 118.704C580.215 117.503 581.204 116.054 581.911 114.358C582.617 112.662 582.971 110.825 582.971 108.846V75.35H593.889V131H582.971V119.34L584.879 118.068C584.031 120.683 582.582 123.05 580.533 125.17C578.554 127.29 576.187 128.986 573.431 130.258C570.675 131.459 567.707 132.06 564.527 132.06ZM627.752 132.06C623.088 132.06 618.884 131.247 615.138 129.622C611.393 127.997 608.284 125.594 605.81 122.414L613.23 116.054C615.35 118.527 617.647 120.329 620.12 121.46C622.664 122.52 625.526 123.05 628.706 123.05C629.978 123.05 631.144 122.909 632.204 122.626C633.335 122.273 634.289 121.778 635.066 121.142C635.914 120.506 636.55 119.764 636.974 118.916C637.398 117.997 637.61 117.008 637.61 115.948C637.61 114.111 636.939 112.627 635.596 111.496C634.89 111.001 633.759 110.471 632.204 109.906C630.72 109.27 628.777 108.634 626.374 107.998C622.276 106.938 618.919 105.737 616.304 104.394C613.69 103.051 611.676 101.532 610.262 99.836C609.202 98.4933 608.425 97.0447 607.93 95.49C607.436 93.8647 607.188 92.098 607.188 90.19C607.188 87.858 607.683 85.738 608.672 83.83C609.732 81.8513 611.146 80.1553 612.912 78.742C614.75 77.258 616.87 76.1273 619.272 75.35C621.746 74.5727 624.36 74.184 627.116 74.184C629.731 74.184 632.31 74.5373 634.854 75.244C637.469 75.9507 639.872 76.9753 642.062 78.318C644.253 79.6607 646.09 81.2507 647.574 83.088L641.32 89.978C639.978 88.6353 638.494 87.4693 636.868 86.48C635.314 85.42 633.724 84.6073 632.098 84.042C630.473 83.4767 628.989 83.194 627.646 83.194C626.162 83.194 624.82 83.3353 623.618 83.618C622.417 83.9007 621.392 84.3247 620.544 84.89C619.767 85.4553 619.166 86.162 618.742 87.01C618.318 87.858 618.106 88.812 618.106 89.872C618.177 90.7907 618.389 91.674 618.742 92.522C619.166 93.2993 619.732 93.9707 620.438 94.536C621.216 95.1013 622.382 95.702 623.936 96.338C625.491 96.974 627.47 97.5747 629.872 98.14C633.406 99.0587 636.303 100.083 638.564 101.214C640.896 102.274 642.734 103.511 644.076 104.924C645.49 106.267 646.479 107.821 647.044 109.588C647.61 111.355 647.892 113.333 647.892 115.524C647.892 118.704 646.974 121.566 645.136 124.11C643.37 126.583 640.967 128.527 637.928 129.94C634.89 131.353 631.498 132.06 627.752 132.06Z" fill="#F1F1F1"/>
<path d="M665.084 132.166C662.752 132.166 660.95 131.495 659.678 130.152C658.406 128.739 657.77 126.76 657.77 124.216C657.77 121.884 658.441 119.976 659.784 118.492C661.127 117.008 662.893 116.266 665.084 116.266C667.416 116.266 669.218 116.973 670.49 118.386C671.762 119.729 672.398 121.672 672.398 124.216C672.398 126.548 671.727 128.456 670.384 129.94C669.041 131.424 667.275 132.166 665.084 132.166ZM706.163 132.06C701.57 132.06 697.365 130.788 693.549 128.244C689.804 125.7 686.8 122.237 684.539 117.856C682.278 113.475 681.147 108.528 681.147 103.016C681.147 97.4333 682.278 92.4867 684.539 88.176C686.871 83.7947 689.98 80.3673 693.867 77.894C697.824 75.4207 702.241 74.184 707.117 74.184C710.014 74.184 712.664 74.608 715.067 75.456C717.47 76.304 719.554 77.5053 721.321 79.06C723.158 80.544 724.642 82.2753 725.773 84.254C726.974 86.2327 727.716 88.3527 727.999 90.614L725.561 89.766V75.35H736.585V131H725.561V117.75L728.105 117.008C727.681 118.916 726.798 120.789 725.455 122.626C724.183 124.393 722.522 125.983 720.473 127.396C718.494 128.809 716.268 129.94 713.795 130.788C711.392 131.636 708.848 132.06 706.163 132.06ZM709.025 121.99C712.346 121.99 715.279 121.177 717.823 119.552C720.367 117.927 722.346 115.701 723.759 112.874C725.243 109.977 725.985 106.691 725.985 103.016C725.985 99.412 725.243 96.1967 723.759 93.37C722.346 90.5433 720.367 88.3173 717.823 86.692C715.279 85.0667 712.346 84.254 709.025 84.254C705.774 84.254 702.877 85.0667 700.333 86.692C697.86 88.3173 695.881 90.5433 694.397 93.37C692.984 96.1967 692.277 99.412 692.277 103.016C692.277 106.691 692.984 109.977 694.397 112.874C695.881 115.701 697.86 117.927 700.333 119.552C702.877 121.177 705.774 121.99 709.025 121.99ZM753.631 131V75.35H764.549V131H753.631ZM758.931 63.054C756.599 63.054 754.797 62.4533 753.525 61.252C752.253 60.0507 751.617 58.3547 751.617 56.164C751.617 54.1147 752.253 52.454 753.525 51.182C754.868 49.91 756.67 49.274 758.931 49.274C761.263 49.274 763.065 49.8747 764.337 51.076C765.609 52.2773 766.245 53.9733 766.245 56.164C766.245 58.2133 765.574 59.874 764.231 61.146C762.959 62.418 761.193 63.054 758.931 63.054Z" fill="url(#paint1_linear_1_11)"/>
<defs>
<linearGradient id="paint0_linear_1_11" x1="-0.0395375" y1="113.234" x2="164.324" y2="67.5015" gradientUnits="userSpaceOnUse">
<stop stop-color="#3B82F6"/>
<stop offset="1" stop-color="#10B981"/>
</linearGradient>
<linearGradient id="paint1_linear_1_11" x1="777" y1="82" x2="653" y2="110" gradientUnits="userSpaceOnUse">
<stop stop-color="#10B981"/>
<stop offset="1" stop-color="#3B82F6"/>
</linearGradient>
</defs>
</svg>
